# xmcd
#
# Track frame offsets: 
#        150
#        20515
#        42410
#        63051
#        82381
#        103412
#        123277
#        140921
#        156338
#        176422
#        192447
#        213499
#
# Disc length: 3233 seconds
#
# Revision: 0
# Processed by: cddbd v1.5.2PL0 Copyright (c) Steve Scherf et al.
# Submitted via: ExactAudioCopy v1.1
#
DISCID=b50c9f0c
DTITLE=Various Artist - Nasty N' Dirty Southern Soul Blues
DYEAR=2017
DGENRE=Blues
TTITLE0=Carl Marshall - Put Your Hands On It 
TTITLE1=Bobby Doll Johnson - Pull  Up From Behind
TTITLE2=Nathaniel Kimball - Sit On My Face
TTITLE3=Willie B - Sweet Lick 
TTITLE4=Ricky White - Taste Your Love
TTITLE5=Big Cynthia - Eating Still Ain't Cheating
TTITLE6=Chick Willis - Mother Fuyer
TTITLE7=Travis Haddix - Put Your Finger In It
TTITLE8=Charles Wilson - Ride Your Body Tonight
TTITLE9=Blind Ricky McCants - Put a Liplock On That Thing
TTITLE10=Stevie J. - Hit It Again
TTITLE11=Jody Sticker  and  Sir Charles Jones - Roll It Baby (Long Versi
TTITLE11=on) 
EXTD=
EXTT0=
EXTT1=
EXTT2=
EXTT3=
EXTT4=
EXTT5=
EXTT6=
EXTT7=
EXTT8=
EXTT9=
EXTT10=
EXTT11=
PLAYORDER=
